<svg width="24" height="24" viewBox="0 0 24 24" fill="none" xmlns="http://www.w3.org/2000/svg">
<path d="M19.6879 20.1585H13.9653C13.86 20.1585 13.7746 20.0731 13.7746 19.9677V16.1526C13.7746 16.0473 13.86 15.9619 13.9653 15.9619H19.6879C19.7933 15.9619 19.8787 16.0473 19.8787 16.1526V19.9677C19.8787 20.0731 19.7933 20.1585 19.6879 20.1585ZM10.1503 20.1585H4.42764C4.32229 20.1585 4.23689 20.0731 4.23689 19.9677V12.3376C4.23689 12.2322 4.32229 12.1468 4.42764 12.1468H10.1503C10.2556 12.1468 10.341 12.2322 10.341 12.3376V19.9677C10.341 20.0731 10.2556 20.1585 10.1503 20.1585ZM19.6879 12.5283H13.9653C13.86 12.5283 13.7746 12.4429 13.7746 12.3376V4.70743C13.7746 4.60208 13.86 4.51668 13.9653 4.51668H19.6879C19.7933 4.51668 19.8787 4.60208 19.8787 4.70743V12.3376C19.8787 12.4429 19.7933 12.5283 19.6879 12.5283ZM10.1503 8.71325H4.42764C4.32229 8.71325 4.23689 8.62785 4.23689 8.5225V4.70743C4.23689 4.60208 4.32229 4.51668 4.42764 4.51668H10.1503C10.2556 4.51668 10.341 4.60208 10.341 4.70743V8.5225C10.341 8.62785 10.2556 8.71325 10.1503 8.71325Z" stroke="white" stroke-width="1.52603"/>
</svg>
