<svg width="24" height="24" viewBox="0 0 24 24" fill="none" xmlns="http://www.w3.org/2000/svg">
<path d="M3.47388 18.0671V12.3445C3.47388 10.0679 4.37825 7.88452 5.98805 6.27473C7.59784 4.66493 9.78119 3.76056 12.0578 3.76056C14.3344 3.76056 16.5177 4.66493 18.1275 6.27473C19.7373 7.88452 20.6417 10.0679 20.6417 12.3445V18.0671" stroke="white" stroke-width="1.90754" stroke-linecap="round" stroke-linejoin="round"/>
<path d="M20.6417 19.0208C20.6417 19.5267 20.4407 20.0119 20.083 20.3697C19.7253 20.7274 19.2401 20.9284 18.7342 20.9284H17.7804C17.2745 20.9284 16.7893 20.7274 16.4316 20.3697C16.0738 20.0119 15.8729 19.5267 15.8729 19.0208V16.1595C15.8729 15.6536 16.0738 15.1684 16.4316 14.8107C16.7893 14.453 17.2745 14.252 17.7804 14.252H20.6417V19.0208ZM3.47388 19.0208C3.47388 19.5267 3.67485 20.0119 4.03258 20.3697C4.39031 20.7274 4.8755 20.9284 5.38141 20.9284H6.33518C6.84109 20.9284 7.32628 20.7274 7.68401 20.3697C8.04174 20.0119 8.24272 19.5267 8.24272 19.0208V16.1595C8.24272 15.6536 8.04174 15.1684 7.68401 14.8107C7.32628 14.453 6.84109 14.252 6.33518 14.252H3.47388V19.0208Z" stroke="white" stroke-width="1.90754" stroke-linecap="round" stroke-linejoin="round"/>
</svg>
