<svg width="48" height="48" viewBox="0 0 48 48" fill="none" xmlns="http://www.w3.org/2000/svg">
<path d="M23.8443 43.7144C12.8703 43.7144 3.97412 34.8183 3.97412 23.8443C3.97412 12.8703 12.8703 3.97412 23.8443 3.97412C34.8183 3.97412 43.7144 12.8703 43.7144 23.8443C43.7024 34.8133 34.8133 43.7024 23.8443 43.7144ZM25.8313 15.8962V31.7923H29.8053V15.8962H25.8313ZM17.8832 15.8962V31.7923H21.8573V15.8962H17.8832Z" fill="white"/>
<ellipse cx="23.5" cy="23.5" rx="9.5" ry="11.5" fill="white"/>
<path d="M17.75 16.1412C17.7498 15.9876 17.7901 15.8365 17.8669 15.7034C17.9436 15.5702 18.054 15.4596 18.1871 15.3827C18.3201 15.3058 18.4711 15.2653 18.6248 15.2653C18.7784 15.2652 18.9294 15.3056 19.0625 15.3825L32.675 23.2425C32.8079 23.3193 32.9182 23.4298 32.9949 23.5627C33.0716 23.6957 33.112 23.8465 33.112 24C33.112 24.1535 33.0716 24.3043 32.9949 24.4373C32.9182 24.5702 32.8079 24.6807 32.675 24.7575L19.0625 32.6175C18.9295 32.6943 18.7786 32.7347 18.6251 32.7347C18.4715 32.7347 18.3206 32.6943 18.1876 32.6176C18.0546 32.5408 17.9441 32.4304 17.8673 32.2974C17.7905 32.1644 17.75 32.0136 17.75 31.86V16.1412Z" fill="black"/>
</svg>
