<svg width="29" height="30" viewBox="0 0 29 30" fill="none" xmlns="http://www.w3.org/2000/svg">
<path d="M8.39384 25.4555C8.39384 25.9866 7.75175 26.2526 7.37622 25.8771L4.04651 22.5473C3.81372 22.3145 3.81372 21.9371 4.04651 21.7043L7.37622 18.3746C7.75175 17.9991 8.39384 18.265 8.39384 18.7961V20.3375C8.39384 20.6667 8.66072 20.9336 8.98994 20.9336H19.7198C20.049 20.9336 20.3159 20.6667 20.3159 20.3375V16.7609C20.3159 16.4317 20.5828 16.1648 20.912 16.1648H22.1042C22.4335 16.1648 22.7004 16.4317 22.7004 16.7609V22.1258C22.7004 22.7843 22.1666 23.318 21.5081 23.318H8.98994C8.66072 23.318 8.39384 23.5849 8.39384 23.9141V25.4555ZM8.39384 13.1843C8.39384 13.5135 8.12695 13.7804 7.79773 13.7804H6.60552C6.2763 13.7804 6.00942 13.5135 6.00942 13.1843V7.81931C6.00942 7.16088 6.54319 6.6271 7.20163 6.6271H19.7198C20.049 6.6271 20.3159 6.36022 20.3159 6.031V4.4896C20.3159 3.95853 20.958 3.69257 21.3335 4.06809L24.6633 7.3978C24.8961 7.6306 24.8961 8.00803 24.6633 8.24082L21.3335 11.5705C20.958 11.9461 20.3159 11.6801 20.3159 11.149V9.60763C20.3159 9.27841 20.049 9.01152 19.7198 9.01152H8.98994C8.66072 9.01152 8.39384 9.27841 8.39384 9.60763V13.1843Z" fill="white"/>
</svg>
