<svg width="30" height="30" viewBox="0 0 30 30" fill="none" xmlns="http://www.w3.org/2000/svg">
<path d="M24.6767 23.9141C24.6767 24.2433 24.4098 24.5102 24.0806 24.5102H19.5582C19.0272 24.5102 18.7612 23.8683 19.1366 23.4927L20.1412 22.4876C20.3739 22.2549 20.3738 21.8776 20.1411 21.6448L17.2534 18.7561C17.0206 18.5233 17.0207 18.1459 17.2534 17.9131L18.0916 17.075C18.3243 16.8422 18.7017 16.8422 18.9345 17.0749L21.8232 19.9627C22.056 20.1954 22.4333 20.1954 22.6661 19.9628L23.6592 18.9701C24.0348 18.5947 24.6767 18.8607 24.6767 19.3917V23.9141ZM7.28299 24.5102C7.28261 24.5102 7.28224 24.5101 7.28197 24.5098L6.02272 23.2506C5.78999 23.0178 5.78992 22.6405 6.02255 22.4077L20.1305 8.28849C20.3631 8.05567 20.3631 7.67837 20.1303 7.44564L19.1372 6.45249C18.7617 6.07696 19.0276 5.43488 19.5587 5.43488H24.0806C24.4098 5.43488 24.6767 5.70176 24.6767 6.03098V10.5529C24.6767 11.084 24.0346 11.3499 23.6591 10.9744L22.666 9.98128C22.4332 9.74854 22.0559 9.74848 21.8231 9.98113L7.28401 24.5098C7.28374 24.5101 7.28337 24.5102 7.28299 24.5102V24.5102ZM12.1866 12.8611C11.9536 13.0925 11.5773 13.0918 11.3451 12.8596L6.02289 7.5374C5.7901 7.30461 5.7901 6.92717 6.02289 6.69438L6.86129 5.85598C7.09393 5.62334 7.47105 5.62316 7.7039 5.85557L13.0342 11.1756C13.268 11.4089 13.2675 11.7878 13.0331 12.0205L12.1866 12.8611Z" fill="white"/>
</svg>
