<svg width="110" height="56" viewBox="0 0 110 56" fill="none" xmlns="http://www.w3.org/2000/svg">
<path d="M0 28C0 12.536 12.536 0 28 0H82C97.464 0 110 12.536 110 28V28C110 43.464 97.464 56 82 56H28C12.536 56 0 43.464 0 28V28Z" fill="#1C2026"/>
<circle cx="55" cy="28.5" r="14" fill="#0C82EE"/>
<path d="M60.2137 32.7816L60.8356 28.8301H56.9452V26.267C56.9452 25.1857 57.4877 24.1311 59.2302 24.1311H61V20.767C61 20.767 59.3945 20.5 57.8603 20.5C54.6548 20.5 52.5617 22.3929 52.5617 25.8184V28.8301H49V32.7816H52.5617V42.3345C53.2767 42.444 54.0082 42.5 54.7534 42.5C55.4986 42.5 56.2302 42.444 56.9452 42.3345V32.7816H60.2137Z" fill="white"/>
<path d="M28 2H82V-2H28V2ZM82 54H28V58H82V54ZM28 54C13.6406 54 2 42.3594 2 28H-2C-2 44.5685 11.4315 58 28 58V54ZM108 28C108 42.3594 96.3594 54 82 54V58C98.5685 58 112 44.5685 112 28H108ZM82 2C96.3594 2 108 13.6406 108 28H112C112 11.4315 98.5685 -2 82 -2V2ZM28 -2C11.4315 -2 -2 11.4315 -2 28H2C2 13.6406 13.6406 2 28 2V-2Z" fill="white"/>
</svg>
