<svg width="40" height="40" viewBox="0 0 40 40" fill="none" xmlns="http://www.w3.org/2000/svg">
<rect width="40" height="40" fill="#794DFD"/>
<path fill-rule="evenodd" clip-rule="evenodd" d="M17.8575 17.4742H20.9525V19.0159C21.3984 18.1292 22.5417 17.3325 24.2592 17.3325C27.5517 17.3325 28.3334 19.0975 28.3334 22.3359V28.3334H25V23.0734C25 21.2292 24.5542 20.1892 23.4192 20.1892C21.845 20.1892 21.1909 21.31 21.1909 23.0725V28.3334H17.8575V17.4742V17.4742ZM12.1417 28.1917H15.475V17.3325H12.1417V28.1917V28.1917ZM15.9525 13.7917C15.9526 14.0711 15.8972 14.3477 15.7895 14.6055C15.6818 14.8633 15.5239 15.0971 15.325 15.2934C14.922 15.6939 14.3765 15.9181 13.8084 15.9167C13.2412 15.9163 12.6969 15.6927 12.2934 15.2942C12.0952 15.0973 11.9378 14.8632 11.8303 14.6054C11.7228 14.3476 11.6672 14.071 11.6667 13.7917C11.6667 13.2275 11.8917 12.6875 12.2942 12.2892C12.6974 11.8902 13.2419 11.6664 13.8092 11.6667C14.3775 11.6667 14.9225 11.8909 15.325 12.2892C15.7267 12.6875 15.9525 13.2275 15.9525 13.7917Z" fill="white"/>
</svg>
