<svg width="40" height="40" viewBox="0 0 40 40" fill="none" xmlns="http://www.w3.org/2000/svg">
<rect width="40" height="40" fill="#794DFD"/>
<path d="M26.325 15.575C25.4943 15.3923 24.7428 14.9512 24.1784 14.3149C23.614 13.6786 23.2656 12.8799 23.1833 12.0334V11.6667H20.3083V23.0584C20.3089 23.5638 20.1504 24.0567 19.8554 24.4671C19.5603 24.8775 19.1436 25.1846 18.6642 25.345C18.1849 25.5054 17.6672 25.5109 17.1846 25.3608C16.7019 25.2106 16.2787 24.9124 15.975 24.5084C15.7029 24.1507 15.5362 23.7241 15.4939 23.2767C15.4516 22.8293 15.5354 22.379 15.7356 21.9767C15.9359 21.5744 16.2448 21.2362 16.6273 21.0002C17.0097 20.7643 17.4506 20.6401 17.9 20.6417C18.1485 20.6403 18.3958 20.6768 18.6333 20.75V17.8334C18.3569 17.7991 18.0784 17.7852 17.8 17.7917C16.7744 17.8191 15.7791 18.145 14.9359 18.7294C14.0927 19.3139 13.4382 20.1315 13.0526 21.0822C12.6671 22.0329 12.5671 23.0755 12.7649 24.0822C12.9628 25.0888 13.4499 26.016 14.1667 26.75C14.9012 27.4969 15.8412 28.0085 16.8672 28.2199C17.8932 28.4312 18.9589 28.3328 19.9289 27.9372C20.8988 27.5415 21.7293 26.8664 22.3147 25.9977C22.9001 25.129 23.2141 24.1059 23.2167 23.0584V17.225C24.3762 18.0533 25.7667 18.4964 27.1917 18.4917V15.6584C26.9118 15.6595 26.6325 15.6316 26.3583 15.575H26.325Z" fill="white"/>
</svg>
