<svg width="20" height="20" viewBox="0 0 20 20" fill="none" xmlns="http://www.w3.org/2000/svg">
<g clip-path="url(#clip0_202_425)">
<path d="M8.33948 13.6137L5.65824 14.3448L6.38974 11.6636L16.6714 1.38196H0V19.9969H18.6149V3.33859L8.33948 13.6137Z" fill="#EDEADA"/>
<path d="M6.45179 13.5513C6.58657 13.6861 6.58657 13.9039 6.45179 14.0387L6.32838 14.1621L8.32534 13.6175L6.3856 11.6777L5.84094 13.6744L5.96435 13.5509C6.09914 13.4165 6.31735 13.4165 6.45179 13.5513Z" fill="#F7E6A1"/>
<path d="M6.3284 14.1621L6.45181 14.0387C6.5866 13.9039 6.5866 13.6861 6.45181 13.5513C6.31703 13.4165 6.09916 13.4165 5.96438 13.5513L5.84097 13.6747L5.65826 14.3448L6.3284 14.1621Z" fill="#424A60"/>
<path d="M17.6021 4.35109L15.6524 2.401L6.38976 11.6636L6.38562 11.6778L8.32536 13.6175L8.3395 13.6137L17.6021 4.35109Z" fill="#EBBA16"/>
<path d="M19.7997 1.18581L18.8173 0.20336C18.5501 -0.0637989 18.1168 -0.0637989 17.8496 0.20336L16.6273 1.42574L18.5773 3.37582L19.7997 2.15344C20.0669 1.88629 20.0669 1.45297 19.7997 1.18581Z" fill="#ED7161"/>
<path d="M18.5772 3.37574L16.6272 1.42572L15.6522 2.40073L17.6022 4.35074L18.5772 3.37574Z" fill="#F7E6A1"/>
</g>
<defs>
<clipPath id="clip0_202_425">
<rect width="20" height="20" fill="white"/>
</clipPath>
</defs>
</svg>
