<svg width="20" height="18" viewBox="0 0 20 18" fill="none" xmlns="http://www.w3.org/2000/svg">
<path fill-rule="evenodd" clip-rule="evenodd" d="M9.99985 2.00876C8.1172 2.00876 6.34985 3.86753 6.34985 6.48376C6.34985 9.09999 8.1172 10.9588 9.99985 10.9588C11.8825 10.9588 13.6498 9.09999 13.6498 6.48376C13.6498 3.86753 11.8825 2.00876 9.99985 2.00876ZM4.57485 6.48376C4.57485 3.17674 6.87051 0.233765 9.99985 0.233765C13.1292 0.233765 15.4248 3.17674 15.4248 6.48376C15.4248 9.79079 13.1292 12.7338 9.99985 12.7338C6.87051 12.7338 4.57485 9.79079 4.57485 6.48376ZM4.86867 11.6946C5.18027 12.0729 5.12614 12.6323 4.74778 12.9439C3.48993 13.9797 2.62175 15.3686 2.33361 16.9173C2.24396 17.3992 1.78064 17.7172 1.29875 17.6275C0.816868 17.5379 0.498902 17.0746 0.588555 16.5927C0.960415 14.5939 2.07224 12.8478 3.61939 11.5737C3.99776 11.2621 4.55708 11.3162 4.86867 11.6946ZM16.4215 11.5737C16.0431 11.2621 15.4838 11.3162 15.1722 11.6946C14.8606 12.0729 14.9147 12.6323 15.2931 12.9439C16.5522 13.9807 17.4129 15.3641 17.6626 16.8976C17.7413 17.3814 18.1974 17.7097 18.6811 17.631C19.1649 17.5522 19.4933 17.0962 19.4145 16.6124C19.0866 14.5984 17.9674 12.8468 16.4215 11.5737Z" fill="white"/>
</svg>
