<svg width="40" height="40" viewBox="0 0 40 40" fill="none" xmlns="http://www.w3.org/2000/svg">
<path d="M19.5584 39.0978H24.2872V31.2919C24.0666 31.2748 23.8355 31.2517 23.6127 31.2235C23.2411 31.1888 22.8694 31.1375 22.5032 31.0747C22.2975 31.046 22.0973 31.0118 21.8966 30.9715C21.7648 30.9429 21.6336 30.9202 21.5018 30.8916C21.2558 30.8458 21.0099 30.7885 20.7645 30.7261C19.9721 30.5381 19.1911 30.3052 18.4252 30.0285C18.1396 29.926 17.8537 29.8173 17.5677 29.7026C17.3846 29.6282 17.2015 29.5482 17.0162 29.4683C16.2668 29.1426 15.5357 28.7761 14.8264 28.3703V28.4619C14.1582 28.105 13.5327 27.6735 12.9619 27.1753C12.9564 27.1753 12.9504 27.1693 12.9449 27.1637C12.4359 26.8036 11.944 26.4204 11.4636 26.02C10.9949 25.6252 10.5427 25.2138 10.1082 24.7793C9.88759 24.562 9.66701 24.3381 9.46242 24.1098C9.45023 24.1036 9.44019 24.0937 9.43374 24.0817C9.2275 23.8611 9.03339 23.6466 8.84479 23.4199C8.43285 22.9506 8.04959 22.4703 7.68673 21.9674C7.49207 21.7043 7.30899 21.4352 7.12646 21.1606C6.98308 20.9494 6.85073 20.7432 6.72003 20.5259C6.71452 20.5204 6.71452 20.5149 6.709 20.5088C6.57704 20.3029 6.45109 20.0913 6.33126 19.8741C6.01693 19.3193 5.7197 18.7474 5.44893 18.1646C5.33478 17.9186 5.22007 17.6727 5.11805 17.4206C4.90629 16.9177 4.71163 16.4087 4.54013 15.8942C4.47726 15.7111 4.42047 15.5281 4.36312 15.3428C4.24841 14.9771 4.14253 14.6055 4.04878 14.2332C4.01404 14.102 3.97985 13.9647 3.95118 13.8334C3.88831 13.5875 3.83703 13.3471 3.78574 13.1011C3.73391 12.8325 3.68262 12.5634 3.64236 12.2949C3.59108 11.9976 3.54531 11.6943 3.51112 11.3971C3.47692 11.1456 3.45598 10.9008 3.43116 10.6537C3.41958 10.5506 3.41352 10.4536 3.408 10.3504C3.39934 10.2957 3.39363 10.2404 3.3909 10.185C3.37932 10.0477 3.37381 9.90928 3.36775 9.77307C3.34496 9.40139 3.33355 9.02403 3.33355 8.64094C1.84577 10.8479 0.825174 13.3357 0.334496 15.9517C-0.15618 18.5676 -0.106564 21.2562 0.480319 23.8523C0.485834 23.8633 0.485845 23.8804 0.49136 23.892C1.3003 27.4134 3.06687 30.6427 5.59595 33.2232C8.12497 35.8036 11.3181 37.6348 14.8226 38.5143C16.3708 38.9047 17.9617 39.1007 19.5584 39.0978Z" fill="white"/>
<path d="M24.2875 31.2917V21.6964C24.2943 21.0711 24.1769 20.4506 23.9423 19.871C23.7077 19.2913 23.3604 18.764 22.9206 18.3194C22.4808 17.8748 21.9572 17.5219 21.3801 17.281C20.803 17.0401 20.1838 16.9161 19.5585 16.9161C18.9331 16.9161 18.314 17.0401 17.7369 17.281C17.1598 17.5219 16.6362 17.8748 16.1964 18.3194C15.7566 18.764 15.4094 19.2913 15.1747 19.871C14.9401 20.4506 14.8228 21.0711 14.8295 21.6964V28.369C17.7284 30.028 20.958 31.026 24.2875 31.2917Z" fill="white"/>
<path d="M12.9485 27.1631C11.8553 26.2178 10.9785 25.0483 10.3775 23.7339C9.77663 22.4195 9.46577 20.9911 9.46605 19.5459C9.46643 18.8759 9.53145 18.2076 9.66022 17.5502C9.79422 16.8978 9.99142 16.2601 10.2492 15.646C11.0129 13.8353 12.2864 12.2856 13.9146 11.1853C13.9146 11.1798 13.9147 11.1798 13.9208 11.1798C14.1838 10.9338 14.4578 10.6934 14.7385 10.4629C14.7429 10.4624 14.7468 10.4602 14.7496 10.4568C17.3638 8.28885 20.468 6.79215 23.7923 6.09693C27.1166 5.40169 30.5604 5.52893 33.8243 6.46762C33.9346 6.49022 34.045 6.52276 34.1553 6.55916C30.837 2.82255 26.2122 0.50077 21.2333 0.0720413C16.2545 -0.356687 11.3008 1.14029 7.39263 4.25462C5.82744 5.50376 4.46034 6.98262 3.33777 8.6409C3.34651 13.4302 4.86985 18.094 7.68987 21.9651C9.15271 23.9686 10.9283 25.7236 12.9485 27.1631Z" fill="white"/>
<path d="M39.1045 38.6175V29.771L39.1023 29.7706L39.1004 29.7692L39.0992 29.7672L39.099 29.765H39.093C38.9446 29.6679 38.7957 29.5764 38.6517 29.4733C38.3027 29.2527 37.9652 29.0161 37.6338 28.7757C36.8026 28.1703 36.0118 27.5113 35.2664 26.8031C35.1236 26.6713 34.9802 26.534 34.8373 26.3967C34.8147 26.3741 34.7916 26.3454 34.769 26.3222C34.5628 26.1226 34.3686 25.9224 34.18 25.7156C33.9737 25.4984 33.7736 25.2745 33.5734 25.0539C33.4135 24.8653 33.2475 24.6712 33.0876 24.4765C32.9845 24.3508 32.8819 24.219 32.7788 24.0878C32.6928 23.9846 32.6133 23.876 32.5328 23.7729C32.4126 23.613 32.2924 23.453 32.1783 23.2926C32.138 23.2374 32.0983 23.1823 32.0641 23.1326C31.9152 22.9269 31.7663 22.7152 31.6295 22.4979C31.6092 22.4727 31.5908 22.4459 31.5744 22.4179C31.42 22.1836 31.2711 21.9487 31.1282 21.7088C30.9909 21.497 30.8653 21.2858 30.7511 21.068C30.6993 20.988 30.6535 20.9026 30.6077 20.8165C30.4881 20.6108 30.3734 20.4051 30.2769 20.1989C30.2653 20.1763 30.2537 20.1592 30.2427 20.136C30.1109 19.8961 29.9906 19.6502 29.8765 19.4042C29.8765 19.3927 29.871 19.3872 29.8649 19.3756C29.7794 19.2101 29.7049 19.0447 29.6305 18.8793C29.6476 19.0998 29.6531 19.3254 29.6531 19.5482V29.16C29.6536 29.8035 29.7188 30.4454 29.8478 31.0758C30.2868 33.2063 31.4475 35.1201 33.1339 36.4941C34.8204 37.868 36.9293 38.6181 39.1045 38.6175Z" fill="white"/>
<path d="M39.1044 29.7709V19.5459C39.1034 14.9939 37.5115 10.5854 34.604 7.083C34.4611 6.90598 34.3122 6.72841 34.1578 6.55691C34.0674 6.52669 33.9754 6.50182 33.8821 6.48246C33.8691 6.47182 33.853 6.46581 33.8363 6.46537H33.8253C33.6136 6.4025 33.3963 6.34515 33.179 6.2878C33.1448 6.28228 33.1046 6.2707 33.0643 6.25968C32.8586 6.20784 32.6468 6.16207 32.4356 6.1163C32.1323 6.04792 31.829 5.99057 31.5202 5.93928C31.3547 5.9106 31.1893 5.88799 31.0239 5.85932C30.8237 5.83064 30.618 5.80803 30.4123 5.78487C30.2232 5.76171 30.0346 5.74462 29.846 5.72973C29.749 5.72421 29.6513 5.71263 29.5488 5.70712C29.0569 5.67293 28.5594 5.65528 28.0598 5.65528C27.9335 5.65528 27.8078 5.65528 27.6881 5.66135C27.5778 5.66135 27.4764 5.66686 27.3677 5.67293C27.3085 5.6689 27.249 5.67072 27.1902 5.67844C27.1102 5.67844 27.0302 5.68396 26.9503 5.69002C26.7385 5.69554 26.5273 5.71263 26.3155 5.72973C26.2295 5.73579 26.144 5.74131 26.058 5.75289C25.7895 5.7755 25.5264 5.80417 25.2573 5.84443C25.0919 5.86704 24.9204 5.8902 24.7544 5.91832C24.7231 5.91855 24.692 5.92456 24.6628 5.93597C24.5371 5.95307 24.4054 5.97568 24.2769 5.99884C23.791 6.08431 23.3046 6.19295 22.8304 6.31868C22.687 6.35342 22.5441 6.39313 22.4068 6.43338C21.6363 6.65049 20.8784 6.91006 20.1366 7.21093C19.9253 7.29696 19.7191 7.3885 19.5134 7.48666C19.0557 7.68684 18.6096 7.90963 18.1695 8.14841C17.9864 8.23995 17.8094 8.34252 17.6318 8.44564C17.1228 8.73736 16.6254 9.05224 16.1429 9.38918C15.9025 9.56068 15.6625 9.73218 15.426 9.90975C15.2026 10.0813 14.9799 10.2583 14.7643 10.4358C14.7582 10.4449 14.7502 10.4525 14.7411 10.4584C14.6782 10.5042 14.6214 10.5561 14.5585 10.6073C14.338 10.7904 14.1234 10.9845 13.9122 11.1792C15.5761 10.0513 17.5407 9.44951 19.5509 9.45205H19.5564C20.8801 9.45205 22.1909 9.71316 23.4136 10.2204C24.6363 10.7277 25.7468 11.4713 26.6817 12.4084C28.4123 14.1374 29.4567 16.4356 29.621 18.8764C29.6954 19.0418 29.7699 19.2073 29.8553 19.3727C29.8614 19.3843 29.8669 19.3898 29.8669 19.4014C29.9871 19.6473 30.1068 19.8933 30.2331 20.1332C30.2441 20.1563 30.2557 20.1734 30.2673 20.196C30.3698 20.4023 30.4845 20.608 30.5981 20.8137C30.6439 20.8997 30.6897 20.9852 30.7415 21.0651C30.8612 21.2857 30.9869 21.4942 31.1187 21.7059C31.2615 21.9458 31.4105 22.1807 31.5649 22.4151C31.5813 22.443 31.5997 22.4698 31.62 22.495C31.7567 22.7068 31.9002 22.918 32.0546 23.1298C32.0888 23.1811 32.1284 23.2329 32.1687 23.2897C32.2828 23.4502 32.4031 23.6101 32.5233 23.77C32.6032 23.8731 32.6832 23.9818 32.7692 24.0849C32.8663 24.2161 32.9694 24.3479 33.078 24.4737C33.238 24.6683 33.404 24.8597 33.5639 25.051C33.7641 25.2716 33.9642 25.4972 34.1705 25.7128C34.3591 25.919 34.5532 26.1192 34.7594 26.3194C34.782 26.3425 34.8052 26.3712 34.8279 26.3938C34.9707 26.5311 35.114 26.6696 35.2568 26.8003C36.0023 27.5085 36.7931 28.1674 37.6242 28.7728C37.9551 29.0188 38.2932 29.2531 38.6423 29.4765C38.7851 29.5735 38.9339 29.6706 39.0834 29.7621H39.0894C39.0883 29.7641 39.088 29.7664 39.0885 29.7687C39.0891 29.7709 39.0905 29.7728 39.0925 29.774C39.0945 29.7751 39.0968 29.7755 39.099 29.7749C39.1013 29.7744 39.1032 29.7729 39.1044 29.7709Z" fill="white"/>
<g style="mix-blend-mode:multiply" opacity="0.1">
<g style="mix-blend-mode:multiply" opacity="0.1">
<path d="M9.46508 19.5468C9.46547 18.8768 9.53048 18.2085 9.65919 17.5511C8.26953 14.0973 7.37727 9.74523 7.39492 4.25549C5.82973 5.50463 4.46266 6.98349 3.34009 8.64177C3.34883 13.4311 4.87217 18.0949 7.69215 21.966C9.15401 23.9692 10.9285 25.7242 12.9475 27.164C11.8544 26.2187 10.9775 25.0491 10.3766 23.7347C9.77566 22.4204 9.46481 20.992 9.46508 19.5468Z" fill="white"/>
</g>
</g>
<g style="mix-blend-mode:multiply" opacity="0.16">
<g style="mix-blend-mode:multiply" opacity="0.16">
<path d="M24.2873 31.2919V30.4228C20.7337 29.5964 17.4673 27.8307 14.8293 25.3103V28.3697C17.7283 30.0285 20.9579 31.0263 24.2873 31.2919Z" fill="white"/>
</g>
</g>
<g style="mix-blend-mode:multiply" opacity="0.1">
<g style="mix-blend-mode:multiply" opacity="0.1">
<path d="M37.6752 12.2204C36.9248 10.3594 35.8887 8.62687 34.6042 7.08528C34.4614 6.90826 34.3124 6.73069 34.158 6.55919C34.0677 6.52897 33.9756 6.5041 33.8823 6.48474C33.8694 6.4741 33.8533 6.46809 33.8365 6.46765H33.8256C33.6138 6.40478 33.3965 6.34743 33.1792 6.29008C33.1451 6.28457 33.1048 6.27299 33.0645 6.26196C32.8589 6.21012 32.647 6.16435 32.4358 6.11858C32.1325 6.0502 31.8292 5.99285 31.5204 5.94156C31.355 5.91289 31.1895 5.89028 31.0241 5.8616C30.8239 5.83292 30.6182 5.81032 30.4125 5.78715C30.2234 5.76399 30.0349 5.7469 29.8463 5.73201C29.7492 5.72649 29.6516 5.71491 29.549 5.7094C29.0571 5.67521 28.5597 5.65756 28.06 5.65756C27.9338 5.65756 27.808 5.65756 27.6884 5.66363C27.5781 5.66363 27.4766 5.66914 27.368 5.67521C27.3087 5.67118 27.2493 5.67306 27.1904 5.68072C27.1104 5.68072 27.0305 5.68624 26.9505 5.6923C26.7388 5.69782 26.5275 5.71491 26.3158 5.73201C26.2298 5.73807 26.1443 5.74359 26.0583 5.75517C25.7897 5.77778 25.5267 5.80646 25.2575 5.84671C25.0921 5.86932 24.9206 5.89248 24.7546 5.92061C24.7233 5.92088 24.6923 5.92684 24.6631 5.93825C24.5373 5.95535 24.4056 5.97796 24.2771 6.00112C23.7913 6.08659 23.3048 6.19523 22.8306 6.32096C22.6872 6.3557 22.5444 6.39541 22.4071 6.43566C21.6365 6.65277 20.8786 6.9124 20.1368 7.21322C19.9256 7.29924 19.7193 7.39078 19.5137 7.48894C19.0559 7.68912 18.6098 7.91191 18.1698 8.15069C17.9867 8.24223 17.8096 8.3448 17.632 8.44792C17.123 8.73964 16.6257 9.05452 16.1432 9.39146C15.9027 9.56296 15.6628 9.73447 15.4262 9.91203C15.2029 10.0835 14.9801 10.2606 14.7645 10.4381C14.7584 10.4472 14.7505 10.4548 14.7413 10.4607C14.6784 10.5065 14.6216 10.5583 14.5588 10.6096C14.3382 10.7927 14.1237 10.9868 13.9125 11.1815C15.5764 10.0536 17.5409 9.45179 19.5512 9.45433H19.5567C23.8111 8.46171 29.9929 8.3448 37.3527 12.0677C37.4635 12.1118 37.5737 12.1636 37.6752 12.2204Z" fill="white"/>
</g>
</g>
<g style="mix-blend-mode:multiply" opacity="0.1">
<g style="mix-blend-mode:multiply" opacity="0.1">
<path d="M39.1044 35.5867V29.771C39.1036 29.771 39.1029 29.7709 39.1022 29.7706C39.1014 29.7703 39.1008 29.7698 39.1003 29.7692C39.0998 29.7687 39.0993 29.768 39.0991 29.7672C39.0989 29.7665 39.0988 29.7657 39.0989 29.765H39.0928C38.9445 29.6679 38.7955 29.5764 38.6516 29.4733C38.3025 29.2527 37.9651 29.0161 37.6336 28.7757C36.8025 28.1703 36.0117 27.5113 35.2663 26.8031C35.1235 26.6713 34.98 26.534 34.8372 26.3967C34.8146 26.3741 34.7915 26.3454 34.7689 26.3222C34.5626 26.1226 34.3685 25.9224 34.1799 25.7156C33.9736 25.4984 33.7735 25.2745 33.5733 25.0539C33.4134 24.8653 33.2474 24.6712 33.0875 24.4765C32.9844 24.3508 32.8818 24.219 32.7787 24.0878C32.6927 23.9846 32.6132 23.876 32.5327 23.7729C32.4125 23.6129 32.2923 23.453 32.1781 23.2926C32.1379 23.2374 32.0982 23.1823 32.064 23.1326C31.9151 22.9269 31.7662 22.7152 31.6294 22.4979C31.6091 22.4727 31.5907 22.4459 31.5743 22.4179C31.4199 22.1836 31.2709 21.9487 31.1281 21.7088C30.9908 21.497 30.8651 21.2858 30.751 21.068C30.6991 20.988 30.6534 20.9026 30.6076 20.8165C30.4879 20.6108 30.3732 20.4051 30.2767 20.1989C30.2652 20.1763 30.2536 20.1592 30.2425 20.136C30.1107 19.8961 29.9905 19.6502 29.8764 19.4042C29.8764 19.3927 29.8709 19.3872 29.8648 19.3756C29.7793 19.2101 29.7048 19.0447 29.6304 18.8793C29.6475 19.0998 29.653 19.3254 29.653 19.5482V22.0794C31.6153 27.091 34.7051 31.5836 38.683 35.2089C38.8187 35.3363 38.9616 35.4609 39.1044 35.5867Z" fill="white"/>
</g>
</g>
<g style="mix-blend-mode:multiply" opacity="0.3">
<g style="mix-blend-mode:multiply" opacity="0.3">
<path d="M39.1045 38.6174V19.5459C39.1036 14.9939 37.5116 10.5854 34.6041 7.08305C34.9984 7.62071 35.37 8.1639 35.7191 8.73024C36.0744 9.30524 36.3989 9.89866 36.6913 10.5081C36.9428 11.0171 37.1601 11.5377 37.3602 12.0638C37.4005 12.1614 37.4347 12.264 37.4749 12.3671C37.7103 12.9966 37.9127 13.6379 38.0815 14.2884C38.253 14.9364 38.3904 15.5929 38.4929 16.2554C38.5845 16.9171 38.6583 17.5822 38.6875 18.2456C38.7168 18.909 38.7108 19.5724 38.7047 20.2584L38.682 22.2988L38.6533 26.3762V30.4537C38.6533 32.0382 38.6629 33.6222 38.682 35.2056C38.6875 36.2125 38.7047 37.2189 38.7163 38.2193L38.3302 38.2138L37.5582 38.1283L36.8016 37.9766L36.0522 37.7654L35.3204 37.4853L34.6173 37.1423L33.9423 36.7419L33.3021 36.2842L32.7016 35.7807L32.1352 35.2293L31.6146 34.6343L31.1459 33.994L30.734 33.3075L30.3794 32.5906L30.0821 31.8472L29.8478 31.0752C30.2867 33.2058 31.4473 35.1197 33.1337 36.4938C34.8202 37.8679 36.9291 38.618 39.1045 38.6174Z" fill="white"/>
</g>
</g>
<g style="mix-blend-mode:multiply" opacity="0.3">
<g style="mix-blend-mode:multiply" opacity="0.3">
<path d="M19.5582 39.0979H24.287V32.39C24.2131 33.5051 24.1728 34.6262 24.1215 35.7412C24.0758 36.7647 24.0416 37.7816 24.0112 38.8062L20.397 38.7147C19.7452 38.7031 19.1105 38.7092 18.4812 38.6595C17.8487 38.6149 17.2189 38.5385 16.5942 38.4307C15.9711 38.3329 15.3543 38.1992 14.7468 38.0303C14.1299 37.8674 13.5223 37.6708 12.9269 37.4414C12.338 37.2412 11.7601 36.961 11.1827 36.709C10.628 36.4063 10.0506 36.1432 9.52452 35.7887C8.97307 35.4743 8.46628 35.0966 7.94571 34.7304C7.68873 34.5473 7.4494 34.3361 7.20235 34.1415C6.9505 33.9477 6.71006 33.7396 6.48215 33.5183C6.25329 33.301 6.01286 33.0893 5.79007 32.8665L5.12831 32.1744C4.90773 31.9538 4.71637 31.6941 4.50516 31.4537C4.30498 31.2083 4.09322 30.9734 3.91014 30.7103L3.34434 29.9383L2.82929 29.132C2.64676 28.8635 2.49843 28.5806 2.34347 28.3049C2.18851 28.0291 2.01755 27.7501 1.88575 27.4584C1.61003 26.8805 1.33099 26.3003 1.11372 25.691C0.867773 25.1081 0.702337 24.496 0.496094 23.8954C1.30504 27.4169 3.07161 30.6461 5.60065 33.2266C8.12973 35.807 11.3229 37.6382 14.8273 38.5178C16.3741 38.9066 17.9633 39.1015 19.5582 39.0979Z" fill="white"/>
</g>
</g>
</svg>
