<svg width="107" height="22" viewBox="0 0 107 22" fill="none" xmlns="http://www.w3.org/2000/svg">
<path d="M15.2845 21.5715H14.3624L12.8815 19.5178C12.5182 19.8438 12.1317 20.1511 11.7218 20.4399C11.3213 20.7193 10.8975 20.9661 10.4505 21.1803C10.0034 21.3853 9.54233 21.5483 9.06731 21.6693C8.60161 21.7904 8.12659 21.851 7.64225 21.851C6.58975 21.851 5.5978 21.674 4.66638 21.3201C3.74428 20.9661 2.93395 20.4538 2.23539 19.7832C1.54615 19.1033 1.00127 18.2743 0.600762 17.2964C0.200254 16.3184 0 15.2053 0 13.9572C0 12.793 0.200254 11.7265 0.600762 10.7578C1.00127 9.77985 1.54615 8.94157 2.23539 8.24301C2.93395 7.54445 3.74428 7.00423 4.66638 6.62235C5.5978 6.23116 6.58975 6.03556 7.64225 6.03556C8.12659 6.03556 8.60626 6.0961 9.08128 6.21719C9.5563 6.33827 10.0174 6.50593 10.4644 6.72015C10.9115 6.93438 11.3353 7.18586 11.7358 7.4746C12.1456 7.76333 12.5275 8.07536 12.8815 8.41067L14.3624 6.63632H15.2845V21.5715ZM11.4424 13.9572C11.4424 13.4356 11.34 12.9327 11.1351 12.4483C10.9395 11.9547 10.6693 11.5216 10.3247 11.149C9.9801 10.7671 9.57493 10.4644 9.10923 10.2409C8.65283 10.008 8.16384 9.89161 7.64225 9.89161C7.12066 9.89161 6.62701 9.9801 6.1613 10.1571C5.70491 10.334 5.3044 10.5948 4.95978 10.9395C4.62447 11.2841 4.35902 11.7125 4.16342 12.2248C3.96782 12.7278 3.87002 13.3052 3.87002 13.9572C3.87002 14.6092 3.96782 15.1914 4.16342 15.7036C4.35902 16.2066 4.62447 16.6304 4.95978 16.975C5.3044 17.3196 5.70491 17.5804 6.1613 17.7574C6.62701 17.9344 7.12066 18.0229 7.64225 18.0229C8.16384 18.0229 8.65283 17.9111 9.10923 17.6875C9.57493 17.4547 9.9801 17.152 10.3247 16.7794C10.6693 16.3975 10.9395 15.9644 11.1351 15.4801C11.34 14.9864 11.4424 14.4788 11.4424 13.9572Z" fill="white"/>
<path d="M29.1998 19.8251C28.8925 20.1046 28.5618 20.37 28.2079 20.6215C27.8632 20.8637 27.5 21.0779 27.1181 21.2642C26.7362 21.4411 26.3404 21.5809 25.9306 21.6833C25.5301 21.7951 25.1202 21.851 24.7011 21.851C23.779 21.851 22.9128 21.688 22.1024 21.362C21.2921 21.036 20.5796 20.5749 19.9649 19.9788C19.3594 19.3734 18.8798 18.6422 18.5258 17.7853C18.1812 16.9191 18.0089 15.9505 18.0089 14.8793V6.60838H21.8091V14.8793C21.8091 15.3823 21.8836 15.834 22.0326 16.2345C22.1909 16.6257 22.4005 16.9564 22.6613 17.2265C22.9221 17.4966 23.2248 17.7015 23.5694 17.8412C23.9234 17.9809 24.3006 18.0508 24.7011 18.0508C25.0923 18.0508 25.4602 17.9623 25.8048 17.7853C26.1588 17.5991 26.4661 17.3569 26.7269 17.0588C26.9877 16.7608 27.1926 16.4255 27.3417 16.0529C27.4907 15.671 27.5652 15.2798 27.5652 14.8793V6.60838H31.3793V21.5715H30.4572L29.1998 19.8251Z" fill="white"/>
<path d="M48.7595 21.5715H47.8374L46.3565 19.5178C45.9932 19.8438 45.6067 20.1511 45.1968 20.4399C44.7963 20.7193 44.3726 20.9661 43.9255 21.1803C43.4784 21.3853 43.0173 21.5483 42.5423 21.6693C42.0766 21.7904 41.6016 21.851 41.1173 21.851C40.0648 21.851 39.0728 21.6554 38.1414 21.2642C37.2193 20.8637 36.409 20.3141 35.7104 19.6156C35.0212 18.9077 34.4763 18.0741 34.0758 17.1147C33.6753 16.1461 33.475 15.0936 33.475 13.9572C33.475 12.8302 33.6753 11.7824 34.0758 10.8137C34.4763 9.84504 35.0212 9.00677 35.7104 8.2989C36.409 7.59102 37.2193 7.03683 38.1414 6.63632C39.0728 6.23582 40.0648 6.03556 41.1173 6.03556C41.4526 6.03556 41.7972 6.0635 42.1511 6.11939C42.5144 6.17527 42.8637 6.26841 43.199 6.39881C43.5436 6.5199 43.8649 6.68289 44.163 6.8878C44.461 7.09272 44.7125 7.3442 44.9174 7.64225V0.656647H48.7595V21.5715ZM44.9174 13.9572C44.9174 13.4356 44.815 12.9327 44.6101 12.4483C44.4145 11.9547 44.1444 11.5216 43.7997 11.149C43.4551 10.7671 43.0499 10.4644 42.5842 10.2409C42.1278 10.008 41.6389 9.89161 41.1173 9.89161C40.5957 9.89161 40.102 9.98476 39.6363 10.171C39.1799 10.3573 38.7794 10.6274 38.4348 10.9814C38.0995 11.326 37.834 11.7498 37.6384 12.2527C37.4428 12.7557 37.345 13.3239 37.345 13.9572C37.345 14.5068 37.4428 15.0284 37.6384 15.522C37.834 16.0157 38.0995 16.4488 38.4348 16.8213C38.7794 17.1939 39.1799 17.4873 39.6363 17.7015C40.102 17.9157 40.5957 18.0229 41.1173 18.0229C41.6389 18.0229 42.1278 17.9111 42.5842 17.6875C43.0499 17.4547 43.4551 17.152 43.7997 16.7794C44.1444 16.3975 44.4145 15.9644 44.6101 15.4801C44.815 14.9864 44.9174 14.4788 44.9174 13.9572Z" fill="white"/>
<path d="M56.1782 2.54276C56.1782 2.8967 56.1084 3.22735 55.9687 3.53472C55.8383 3.84208 55.6566 4.11219 55.4238 4.34505C55.1909 4.56858 54.9162 4.75021 54.5995 4.88992C54.2921 5.02032 53.9615 5.08552 53.6075 5.08552C53.2536 5.08552 52.9183 5.02032 52.6016 4.88992C52.2942 4.75021 52.0241 4.56858 51.7913 4.34505C51.5677 4.11219 51.3861 3.84208 51.2464 3.53472C51.116 3.22735 51.0508 2.8967 51.0508 2.54276C51.0508 2.19814 51.116 1.87214 51.2464 1.56478C51.3861 1.24809 51.5677 0.977984 51.7913 0.754445C52.0241 0.521592 52.2942 0.339966 52.6016 0.209568C52.9183 0.069856 53.2536 0 53.6075 0C53.9615 0 54.2921 0.069856 54.5995 0.209568C54.9162 0.339966 55.1909 0.521592 55.4238 0.754445C55.6566 0.977984 55.8383 1.24809 55.9687 1.56478C56.1084 1.87214 56.1782 2.19814 56.1782 2.54276ZM55.5216 21.5715H51.6795V6.60838H55.5216V21.5715Z" fill="white"/>
<path d="M65.9441 21.5715C65.022 21.5715 64.1558 21.3992 63.3454 21.0546C62.5351 20.7007 61.8226 20.221 61.2079 19.6156C60.6024 19.0008 60.1228 18.2883 59.7688 17.478C59.4242 16.6677 59.2519 15.8014 59.2519 14.8793V10.4365H57.3937V6.63632H59.2519V0.656647H63.0521V6.63632H68.8361V10.4365H63.0521V14.8793C63.0521 15.2798 63.1266 15.6571 63.2756 16.011C63.4246 16.3556 63.6295 16.6583 63.8903 16.9191C64.1511 17.1799 64.4585 17.3895 64.8124 17.5478C65.1664 17.6969 65.5436 17.7714 65.9441 17.7714H68.8361V21.5715H65.9441Z" fill="white"/>
<path d="M75.4864 2.54276C75.4864 2.8967 75.4166 3.22735 75.2769 3.53472C75.1465 3.84208 74.9648 4.11219 74.732 4.34505C74.4991 4.56858 74.2244 4.75021 73.9077 4.88992C73.6003 5.02032 73.2697 5.08552 72.9157 5.08552C72.5618 5.08552 72.2265 5.02032 71.9098 4.88992C71.6024 4.75021 71.3323 4.56858 71.0995 4.34505C70.8759 4.11219 70.6943 3.84208 70.5546 3.53472C70.4242 3.22735 70.359 2.8967 70.359 2.54276C70.359 2.19814 70.4242 1.87214 70.5546 1.56478C70.6943 1.24809 70.8759 0.977984 71.0995 0.754445C71.3323 0.521592 71.6024 0.339966 71.9098 0.209568C72.2265 0.069856 72.5618 0 72.9157 0C73.2697 0 73.6003 0.069856 73.9077 0.209568C74.2244 0.339966 74.4991 0.521592 74.732 0.754445C74.9648 0.977984 75.1465 1.24809 75.2769 1.56478C75.4166 1.87214 75.4864 2.19814 75.4864 2.54276ZM74.8298 21.5715H70.9877V6.60838H74.8298V21.5715Z" fill="white"/>
<path d="M90.8268 9.58425L88.0326 12.3925C87.8929 12.0013 87.7019 11.652 87.4597 11.3446C87.2176 11.0279 86.9428 10.7625 86.6354 10.5483C86.3374 10.334 86.0114 10.171 85.6575 10.0593C85.3035 9.9475 84.9403 9.89161 84.5677 9.89161C84.0461 9.89161 83.5525 9.99873 83.0868 10.213C82.6304 10.4272 82.2299 10.7299 81.8852 11.1211C81.5499 11.503 81.2845 11.9594 81.0889 12.4903C80.8933 13.0212 80.7955 13.608 80.7955 14.2506C80.7955 14.7722 80.8933 15.2612 81.0889 15.7176C81.2845 16.174 81.5499 16.5745 81.8852 16.9191C82.2299 17.2638 82.6304 17.5339 83.0868 17.7295C83.5525 17.9251 84.0461 18.0229 84.5677 18.0229C84.9403 18.0229 85.2989 17.9716 85.6435 17.8692C85.9881 17.7667 86.3095 17.6223 86.6075 17.4361C86.9149 17.2405 87.185 17.0076 87.4178 16.7375C87.66 16.4581 87.8556 16.1507 88.0046 15.8154L90.7989 18.6236C90.4449 19.1266 90.0351 19.5783 89.5694 19.9788C89.113 20.3793 88.6147 20.7193 88.0745 20.9987C87.5436 21.2781 86.9801 21.4877 86.384 21.6274C85.7972 21.7765 85.1918 21.851 84.5677 21.851C83.5152 21.851 82.5233 21.6554 81.5918 21.2642C80.6697 20.8637 79.8594 20.3188 79.1609 19.6295C78.4716 18.9403 77.9267 18.1346 77.5262 17.2125C77.1257 16.2904 76.9255 15.3031 76.9255 14.2506C76.9255 13.105 77.1257 12.0339 77.5262 11.0373C77.9267 10.0406 78.4716 9.17443 79.1609 8.43861C79.8594 7.69348 80.6697 7.10669 81.5918 6.67824C82.5233 6.24979 83.5152 6.03556 84.5677 6.03556C85.1918 6.03556 85.8018 6.11473 86.3979 6.27307C87.0033 6.43141 87.5762 6.66427 88.1164 6.97163C88.6659 7.26968 89.1689 7.63759 89.6253 8.07536C90.091 8.51312 90.4915 9.01609 90.8268 9.58425Z" fill="white"/>
<path d="M106.964 21.5715H106.041L104.561 19.5178C104.197 19.8438 103.811 20.1511 103.401 20.4399C103 20.7193 102.577 20.9661 102.13 21.1803C101.682 21.3853 101.221 21.5483 100.746 21.6693C100.281 21.7904 99.8056 21.851 99.3213 21.851C98.2688 21.851 97.2768 21.674 96.3454 21.3201C95.4233 20.9661 94.613 20.4538 93.9144 19.7832C93.2252 19.1033 92.6803 18.2743 92.2798 17.2964C91.8793 16.3184 91.6791 15.2053 91.6791 13.9572C91.6791 12.793 91.8793 11.7265 92.2798 10.7578C92.6803 9.77985 93.2252 8.94157 93.9144 8.24301C94.613 7.54445 95.4233 7.00423 96.3454 6.62235C97.2768 6.23116 98.2688 6.03556 99.3213 6.03556C99.8056 6.03556 100.285 6.0961 100.76 6.21719C101.235 6.33827 101.696 6.50593 102.143 6.72015C102.591 6.93438 103.014 7.18586 103.415 7.4746C103.825 7.76333 104.207 8.07536 104.561 8.41067L106.041 6.63632H106.964V21.5715ZM103.121 13.9572C103.121 13.4356 103.019 12.9327 102.814 12.4483C102.619 11.9547 102.348 11.5216 102.004 11.149C101.659 10.7671 101.254 10.4644 100.788 10.2409C100.332 10.008 99.8429 9.89161 99.3213 9.89161C98.7997 9.89161 98.3061 9.9801 97.8404 10.1571C97.384 10.334 96.9835 10.5948 96.6388 10.9395C96.3035 11.2841 96.0381 11.7125 95.8425 12.2248C95.6469 12.7278 95.5491 13.3052 95.5491 13.9572C95.5491 14.6092 95.6469 15.1914 95.8425 15.7036C96.0381 16.2066 96.3035 16.6304 96.6388 16.975C96.9835 17.3196 97.384 17.5804 97.8404 17.7574C98.3061 17.9344 98.7997 18.0229 99.3213 18.0229C99.8429 18.0229 100.332 17.9111 100.788 17.6875C101.254 17.4547 101.659 17.152 102.004 16.7794C102.348 16.3975 102.619 15.9644 102.814 15.4801C103.019 14.9864 103.121 14.4788 103.121 13.9572Z" fill="white"/>
</svg>
